<?xml version="1.0" encoding="UTF-8"?>
<svg id="Layer_2" data-name="Layer 2" xmlns="http://www.w3.org/2000/svg" viewBox="0 0 648 159.85">
  <defs>
    <style>
      .cls-1 {
        fill: #006937;
      }
    </style>
  </defs>
  <g id="logo">
    <g>
      <g>
        <path d="M0,91.63V2.65h27.16v87.87c0,28.7,14.79,43.94,39.08,43.94s38.86-14.35,38.86-42.83V2.65h27.16v87.65c0,46.15-26.05,69.33-66.46,69.33S0,136.45,0,91.63Z"/>
        <path class="cls-1" d="M153,2.65h57.63c48.57,0,82.14,33.34,82.14,76.84v.44c0,43.5-33.56,77.28-82.14,77.28h-57.63V2.65ZM180.16,27.38v105.1h30.47c32.46,0,53.65-21.86,53.65-52.11v-.44c0-30.25-21.2-52.55-53.65-52.55h-30.47Z"/>
        <path class="cls-1" d="M302.25,80.37v-.44c0-43.5,33.56-79.93,81.03-79.93s80.59,35.99,80.59,79.49v.44c0,43.5-33.56,79.93-81.03,79.93s-80.59-35.99-80.59-79.48ZM435.39,80.37v-.44c0-30.03-21.86-54.98-52.55-54.98s-52.11,24.51-52.11,54.54v.44c0,30.03,21.86,54.76,52.55,54.76s52.11-24.29,52.11-54.31Z"/>
        <path d="M481.75,2.65h27.16v154.55h-27.16V2.65Z"/>
        <path d="M571.61,27.82h-49.02V2.65h125.41v25.17h-49.02v129.38h-27.38V27.82Z"/>
      </g>
      <g>
        <path class="cls-1" d="M382.26,54.26c-5.45,0-9.87-4.42-9.87-9.87s4.42-9.87,9.87-9.87,9.87,4.42,9.87,9.87c0,5.45-4.42,9.87-9.87,9.87Z"/>
        <path class="cls-1" d="M413.29,54.4l-.08.02h0l-.07.02c-.18.05-.35.1-.53.16-3.28.96-19.2,5.45-30.42,5.45-10.42,0-24.91-3.88-29.54-5.2-.46-.18-.93-.33-1.41-.45-3.35-.88-5.64,2.52-5.64,5.63s2.77,4.55,5.56,5.6v.05l16.79,5.24c1.72.66,2.17,1.33,2.4,1.91.73,1.87.15,5.56-.06,6.85l-1.02,7.93-5.67,31.06c-.02.08-.03.17-.05.26l-.04.22h0c-.41,2.85,1.68,5.61,5.64,5.61,3.46,0,4.98-2.39,5.64-5.63h0s4.94-27.78,7.4-27.78,7.55,27.78,7.55,27.78h0c.66,3.25,2.19,5.63,5.64,5.63,3.97,0,6.06-2.77,5.64-5.63-.04-.24-.08-.48-.13-.72l-5.75-30.8-1.02-7.93c-.74-4.62-.14-6.15.06-6.5,0,0,.01-.02.01-.03.19-.35,1.06-1.14,3.08-1.9l15.74-5.5c.1-.03.19-.06.29-.09,2.82-1.06,5.64-2.52,5.64-5.63s-2.29-6.52-5.64-5.64Z"/>
      </g>
    </g>
  </g>
</svg>