<?xml version="1.0" encoding="UTF-8"?>
<svg enable-background="new 0 0 543.33 184.23" version="1.1" viewBox="0 0 543.33 184.23" xml:space="preserve" xmlns="http://www.w3.org/2000/svg">
<style type="text/css">
	.st0{fill:#208749;}
	.st1{fill:none;stroke:#000000;stroke-width:2.146;stroke-linecap:round;stroke-miterlimit:10;}
</style>
		<path class="st0" d="m115.51 2.31h53.64c48.64 0 85.93 21.34 85.93 74.59 0 43.06-30.37 70.36-72.86 70.36h-66.71v-144.95zm52.67 101.5h3.27c17.49 0 30.95-8.07 30.95-27.11 0-20.38-11.73-29.03-30.95-29.03h-3.27v56.14z"/>
		<path class="st0" d="m414.15 75.17c0 46.52-35.95 74.4-80.16 74.4-44.22 0-80.17-27.87-80.17-74.4 0-45.57 36.13-75.17 80.16-75.17s80.17 29.6 80.17 75.17zm-107.28 0.77c0 16.53 11.15 27.87 27.11 27.87s27.1-11.34 27.1-27.87c0-15.38-10.38-28.26-27.1-28.26s-27.11 12.88-27.11 28.26z"/>
	<line class="st1" x1="1.07" x2="542.26" y1="160.05" y2="160.05"/>
		<path d="m13.2 178.81c0 1.44-0.55 2.63-1.65 3.57-1.03 0.87-2.29 1.34-3.78 1.41-1.56 0.08-2.91-0.39-4.04-1.39s-1.69-2.25-1.69-3.75v-11.85h1.04v11.75c0 1.29 0.46 2.33 1.37 3.11 0.88 0.76 1.98 1.12 3.3 1.08 1.23-0.04 2.26-0.41 3.09-1.12 0.88-0.77 1.32-1.78 1.32-3.03v-11.79h1.04v12.01z"/>
		<path d="m30.46 184.23l-13.92-15.03v14.37h-1.12v-16.98l14.01 14.93v-14.71h1.04v17.42z"/>
		<path d="m34.74 183.56h-1.09v-16.75h1.09v16.75z"/>
		<path d="m49.99 166.81l-6.17 17.39-5.87-17.39h1.09l4.85 14.35 5.03-14.35h1.07z"/>
		<path d="m60.46 167.82h-6.93v6.02h6.62v1.01h-6.62v7.7h6.72v1.01h-7.8v-16.75h8.01v1.01z"/>
		<path d="m70.4 183.56h-1.2l-5.41-7.94h-0.55v7.94h-1.08v-16.75h2.6c1.51 0 2.69 0.34 3.57 1.01 0.87 0.67 1.36 1.63 1.46 2.87 0.01 0.17 0.01 0.34 0.01 0.5 0 1.3-0.4 2.33-1.21 3.11-0.85 0.82-2.06 1.26-3.64 1.31l5.45 7.95zm-1.73-12.81c-0.11-1.02-0.55-1.78-1.31-2.31-0.61-0.42-1.31-0.63-2.1-0.63h-2.02v6.79h1.88c0.98 0 1.81-0.29 2.49-0.87 0.73-0.64 1.09-1.47 1.09-2.49 0-0.15-0.01-0.32-0.03-0.49z"/>
		<path d="m82.52 178.73c0.04 1.37-0.44 2.54-1.44 3.54s-2.19 1.5-3.59 1.52c-1.13 0.02-2.05-0.18-2.76-0.6-0.8-0.47-1.49-1.28-2.09-2.45l-0.27-0.53 0.91-0.47 0.23 0.46c0.48 0.96 1.03 1.64 1.63 2.05 0.64 0.42 1.46 0.6 2.44 0.54 0.97-0.06 1.82-0.41 2.56-1.07s1.16-1.47 1.26-2.45c0.01-0.12 0.01-0.24 0.01-0.35 0-1.17-0.74-2.14-2.23-2.93l-3.84-2.02c-1.21-0.64-1.87-1.61-1.96-2.88-0.09-1.22 0.26-2.26 1.03-3.13 0.77-0.86 1.75-1.3 2.93-1.32 1.66-0.03 2.96 0.55 3.91 1.75l0.43 0.54-0.72 0.62-0.52-0.64c-0.74-0.9-1.68-1.35-2.82-1.35-0.12 0-0.25 0-0.38 0.01-0.88 0.07-1.59 0.45-2.13 1.15-0.5 0.65-0.73 1.38-0.68 2.17 0.03 0.53 0.24 1.03 0.64 1.51 0.3 0.37 0.64 0.65 1.02 0.84l3.89 1.99c1.66 0.84 2.51 2.01 2.54 3.5z"/>
		<path d="m98.05 183.56h-1.12l-2.26-5.58h-7.3l-2.26 5.58h-1.12l7.05-17.33 7.01 17.33zm-3.75-6.56l-3.27-8-3.27 8h6.54z"/>
		<path d="m105.44 183.56h-5.26v-16.75h1.09v15.74h4.16v1.01z"/>
		<path d="m126.1 173.69c0.09 0.55 0.13 1.08 0.13 1.61 0 2.61-0.95 4.7-2.84 6.28-1.59 1.33-3.32 1.99-5.19 1.99h-3.86v-16.75h3.61c2.17 0 4 0.64 5.5 1.93 1.46 1.25 2.35 2.9 2.65 4.94zm-1.01 0.71c-0.17-2.19-1.08-3.89-2.72-5.1-1.35-0.99-2.87-1.48-4.58-1.48h-2.42v14.73h2.18c1.95 0 3.64-0.57 5.07-1.72 1.67-1.36 2.5-3.24 2.5-5.64 0-0.25-0.01-0.52-0.03-0.79z"/>
		<path d="m136.36 167.82h-6.93v6.02h6.62v1.01h-6.62v7.7h6.72v1.01h-7.8v-16.75h8.01v1.01z"/>
		<path d="m148.15 178.73c0.04 1.37-0.44 2.54-1.44 3.54s-2.19 1.5-3.59 1.52c-1.13 0.02-2.05-0.18-2.76-0.6-0.8-0.47-1.49-1.28-2.09-2.45l-0.27-0.53 0.91-0.47 0.23 0.46c0.48 0.96 1.03 1.64 1.63 2.05 0.64 0.42 1.46 0.6 2.44 0.54 0.97-0.06 1.82-0.41 2.56-1.07s1.16-1.47 1.26-2.45c0.01-0.12 0.01-0.24 0.01-0.35 0-1.17-0.74-2.14-2.23-2.93l-3.84-2.02c-1.21-0.64-1.87-1.61-1.96-2.88-0.09-1.22 0.26-2.26 1.03-3.13 0.77-0.86 1.75-1.3 2.93-1.32 1.66-0.03 2.96 0.55 3.91 1.75l0.43 0.54-0.72 0.62-0.52-0.64c-0.74-0.9-1.68-1.35-2.82-1.35-0.12 0-0.25 0-0.38 0.01-0.88 0.07-1.59 0.45-2.13 1.15-0.5 0.65-0.73 1.38-0.68 2.17 0.03 0.53 0.24 1.03 0.64 1.51 0.3 0.37 0.64 0.65 1.02 0.84l3.89 1.99c1.66 0.84 2.51 2.01 2.54 3.5z"/>
		<path d="m152.33 183.56h-1.09v-16.75h1.09v16.75z"/>
		<path d="m172.11 176.6c0 1.96-0.77 3.65-2.3 5.06-1.63 1.51-3.68 2.22-6.15 2.13-2.03-0.07-3.85-0.87-5.47-2.4-1.71-1.61-2.61-3.53-2.7-5.76-0.09-2.33 0.67-4.39 2.31-6.16 1.63-1.78 3.59-2.71 5.86-2.79 2.93-0.11 5.33 0.95 7.2 3.2l0.57 0.68-0.82 0.67-0.71-0.83c-1.62-1.91-3.67-2.81-6.15-2.7-2 0.09-3.72 0.93-5.16 2.53s-2.1 3.43-1.99 5.5c0.1 1.88 0.9 3.52 2.37 4.93 1.39 1.34 2.91 2.06 4.55 2.15 2.13 0.11 3.92-0.45 5.37-1.68 1.37-1.17 2.06-2.56 2.06-4.19v-0.4h-5.85v-1.01h7.02v1.07z"/>
		<path d="m189.26 184.23l-13.92-15.03v14.37h-1.12v-16.98l14.01 14.93v-14.71h1.04v17.42z"/>
		<path d="m215.45 175.2c0 2.33-0.88 4.35-2.63 6.06s-3.83 2.55-6.22 2.53c-2.19-0.02-4.12-0.85-5.8-2.5-1.72-1.68-2.6-3.66-2.63-5.93-0.03-2.29 0.77-4.31 2.4-6.05s3.58-2.67 5.87-2.78c2.44-0.11 4.56 0.69 6.34 2.42 1.78 1.72 2.67 3.8 2.67 6.25zm-8.9-7.67c-2.06 0.1-3.81 0.94-5.27 2.51s-2.14 3.39-2.03 5.44c0.09 1.98 0.88 3.67 2.34 5.09 1.44 1.39 3.11 2.11 5 2.16 2.13 0.06 3.97-0.68 5.51-2.22 1.52-1.51 2.27-3.3 2.27-5.38 0-2.1-0.78-3.92-2.33-5.46-1.54-1.53-3.38-2.24-5.49-2.14z"/>
		<path d="m232.6 184.23l-13.92-15.03v14.37h-1.12v-16.98l14.01 14.93v-14.71h1.04v17.42z"/>
		<path d="m240.48 183.56h-5.26v-16.75h1.09v15.74h4.16v1.01z"/>
		<path d="m244.3 183.56h-1.09v-16.75h1.09v16.75z"/>
		<path d="m262.63 184.23l-13.92-15.03v14.37h-1.12v-16.98l14.01 14.93v-14.71h1.04v17.42z"/>
		<path d="m273.26 167.82h-6.93v6.02h6.62v1.01h-6.62v7.7h6.72v1.01h-7.8v-16.75h8.01v1.01z"/>
		<path d="m290.65 182.4l-0.65 0.46c-0.88 0.61-1.98 0.9-3.28 0.89-1.38-0.02-2.55-0.54-3.51-1.55s-1.45-2.23-1.49-3.64c-0.05-1.49 0.44-2.78 1.45-3.88s2.26-1.65 3.74-1.65c1.21 0 2.3 0.32 3.25 0.95l0.43 0.28v1.34l-0.7-0.61c-0.78-0.68-1.8-1.02-3.07-1.01-1.17 0.01-2.16 0.47-2.95 1.37-0.79 0.91-1.17 1.96-1.14 3.18 0.03 1.14 0.42 2.11 1.17 2.92s1.69 1.26 2.81 1.34c1.24 0.09 2.38-0.32 3.42-1.25l0.53-0.47v1.33z"/>
		<path d="m303.35 178.36c0 1.46-0.45 2.69-1.35 3.71-1 1.13-2.36 1.69-4.06 1.69-1.71 0-3.07-0.57-4.08-1.72-0.91-1.03-1.35-2.29-1.34-3.77 0.02-1.45 0.48-2.68 1.38-3.68 0.99-1.11 2.34-1.66 4.04-1.66 1.71 0 3.06 0.56 4.06 1.69 0.9 1.03 1.35 2.27 1.35 3.74zm-0.95-0.01c0.01-1.2-0.35-2.22-1.09-3.06-0.82-0.93-1.94-1.39-3.34-1.39-1.37 0-2.47 0.44-3.28 1.33-0.73 0.79-1.11 1.78-1.15 2.95-0.04 1.22 0.32 2.27 1.07 3.13 0.82 0.96 1.95 1.43 3.37 1.43 1.39 0 2.5-0.46 3.31-1.38 0.73-0.81 1.1-1.81 1.11-3.01z"/>
		<path d="m313.02 183.56h-0.98v-6.17c0-1.34-0.2-2.27-0.61-2.77-0.37-0.45-1-0.66-1.9-0.65-0.79 0.01-1.49 0.4-2.07 1.17-0.59 0.77-0.88 1.71-0.88 2.82v5.6h-1.01v-10.32h1.01v1.59l0.46-0.6c0.2-0.26 0.53-0.52 0.98-0.75 0.58-0.3 1.16-0.46 1.75-0.47 2.18-0.02 3.27 1.24 3.27 3.78v6.77z"/>
		<path d="m319.13 174.16h-1.82v9.41h-1.04v-9.41h-1.07v-0.91h1.15v-3.68h0.98v3.68h1.79v0.91z"/>
		<path d="m331 178.55h-8.85v0.28c0 1.19 0.41 2.17 1.24 2.95 0.76 0.72 1.64 1.09 2.66 1.11 1.51 0.03 2.66-0.56 3.42-1.77l0.37-0.58 0.9 0.5-0.5 0.72c-0.93 1.34-2.34 2.02-4.23 2.04-1.54 0.01-2.76-0.53-3.65-1.62-0.85-1.05-1.25-2.42-1.19-4.12 0.05-1.37 0.55-2.53 1.5-3.48s2.11-1.43 3.47-1.43c1.37 0 2.51 0.45 3.4 1.34s1.38 2.05 1.44 3.48l0.02 0.58zm-1.02-0.94l-0.06-0.36c-0.15-0.97-0.62-1.75-1.39-2.34-0.78-0.6-1.65-0.88-2.62-0.85-0.86 0.03-1.62 0.32-2.3 0.88-0.73 0.6-1.2 1.37-1.4 2.33l-0.07 0.34h7.84z"/>
		<path d="m340.52 183.56h-0.98v-6.17c0-1.34-0.2-2.27-0.61-2.77-0.37-0.45-1-0.66-1.9-0.65-0.79 0.01-1.49 0.4-2.07 1.17-0.59 0.77-0.88 1.71-0.88 2.82v5.6h-1.01v-10.32h1.01v1.59l0.46-0.6c0.2-0.26 0.53-0.52 0.98-0.75 0.58-0.3 1.16-0.46 1.75-0.47 2.18-0.02 3.27 1.24 3.27 3.78v6.77z"/>
		<path d="m346.63 174.16h-1.82v9.41h-1.04v-9.41h-1.07v-0.91h1.15v-3.68h0.98v3.68h1.79v0.91z"/>
		<path d="m357.67 183.56h-1.09v-16.75h1.09v16.75z"/>
		<path d="m376 184.23l-13.92-15.03v14.37h-1.12v-16.98l14.01 14.93v-14.71h1.03v17.42z"/>
		<path d="m388.31 178.73c0.04 1.37-0.44 2.54-1.44 3.54s-2.2 1.5-3.59 1.52c-1.13 0.02-2.05-0.18-2.76-0.6-0.8-0.47-1.49-1.28-2.09-2.45l-0.27-0.53 0.91-0.47 0.23 0.46c0.48 0.96 1.03 1.64 1.63 2.05 0.64 0.42 1.46 0.6 2.44 0.54 0.97-0.06 1.82-0.41 2.56-1.07s1.16-1.47 1.26-2.45c0.01-0.12 0.01-0.24 0.01-0.35 0-1.17-0.74-2.14-2.23-2.93l-3.84-2.02c-1.21-0.64-1.87-1.61-1.96-2.88-0.08-1.22 0.26-2.26 1.03-3.13 0.77-0.86 1.75-1.3 2.93-1.32 1.66-0.03 2.96 0.55 3.91 1.75l0.43 0.54-0.72 0.62-0.52-0.64c-0.74-0.9-1.68-1.35-2.82-1.35-0.12 0-0.25 0-0.38 0.01-0.88 0.07-1.59 0.45-2.13 1.15-0.5 0.65-0.73 1.38-0.68 2.17 0.03 0.53 0.24 1.03 0.64 1.51 0.3 0.37 0.64 0.65 1.02 0.84l3.89 1.99c1.65 0.84 2.5 2.01 2.54 3.5z"/>
		<path d="m398.81 170.69c0.02 0.22 0.03 0.43 0.03 0.62 0 1.36-0.42 2.42-1.25 3.17-0.88 0.78-2.17 1.17-3.87 1.17h-1.84v7.91h-1.04v-16.75h3.35c1.31 0 2.38 0.35 3.21 1.04s1.3 1.64 1.41 2.84zm-1.04 0.09c-0.1-1.01-0.52-1.78-1.25-2.29-0.64-0.45-1.45-0.67-2.45-0.67h-2.19v6.78h2.52c0.89 0 1.67-0.29 2.32-0.87 0.72-0.64 1.08-1.47 1.08-2.51 0-0.14-0.01-0.29-0.03-0.44z"/>
		<path d="m408.88 167.82h-6.93v6.02h6.62v1.01h-6.62v7.7h6.72v1.01h-7.8v-16.75h8.01v1.01z"/>
		<path d="m424.62 181.63l-0.72 0.53c-1.54 1.12-3.32 1.65-5.33 1.61-2.02-0.05-3.85-0.86-5.49-2.44-1.71-1.64-2.6-3.58-2.69-5.81-0.08-2.33 0.69-4.38 2.32-6.15s3.58-2.7 5.85-2.8c2.22-0.08 4.08 0.51 5.6 1.79l0.46 0.38v1.42l-0.77-0.74c-0.61-0.59-1.39-1.05-2.34-1.39-0.96-0.34-1.9-0.49-2.84-0.45-2 0.08-3.71 0.92-5.14 2.5-1.46 1.6-2.13 3.44-2.02 5.5 0.09 1.88 0.88 3.53 2.34 4.96 1.38 1.35 2.89 2.07 4.53 2.16 0.2 0.01 0.39 0.01 0.57 0.01 1.95 0 3.62-0.63 5-1.89l0.67-0.61v1.42z"/>
		<path d="m436.49 167.82h-4.39v15.74h-1.08v-15.74h-4.31v-1.01h9.78v1.01z"/>
		<path d="m440.68 183.56h-1.09v-16.75h1.09v16.75z"/>
		<path d="m461.23 175.2c0 2.33-0.88 4.35-2.63 6.06s-3.83 2.55-6.22 2.53c-2.19-0.02-4.12-0.85-5.8-2.5-1.72-1.68-2.6-3.66-2.63-5.93-0.03-2.29 0.77-4.31 2.4-6.05s3.58-2.67 5.87-2.78c2.44-0.11 4.56 0.69 6.34 2.42 1.78 1.72 2.67 3.8 2.67 6.25zm-8.9-7.67c-2.06 0.1-3.81 0.94-5.27 2.51s-2.14 3.39-2.03 5.44c0.09 1.98 0.88 3.67 2.34 5.09 1.44 1.39 3.11 2.11 5 2.16 2.13 0.06 3.97-0.68 5.51-2.22 1.52-1.51 2.27-3.3 2.27-5.38 0-2.1-0.78-3.92-2.33-5.46-1.54-1.53-3.38-2.24-5.49-2.14z"/>
		<path d="m478.38 184.23l-13.92-15.03v14.37h-1.12v-16.98l14.01 14.93v-14.71h1.04v17.42z"/>
		<path d="m497.05 167.82h-4.39v15.74h-1.08v-15.74h-4.31v-1.01h9.78v1.01z"/>
		<path d="m514.01 175.2c0 2.33-0.88 4.35-2.63 6.06s-3.83 2.55-6.22 2.53c-2.19-0.02-4.12-0.85-5.8-2.5-1.72-1.68-2.6-3.66-2.63-5.93-0.03-2.29 0.77-4.31 2.4-6.05s3.58-2.67 5.87-2.78c2.44-0.11 4.56 0.69 6.34 2.42 1.78 1.72 2.67 3.8 2.67 6.25zm-8.89-7.67c-2.06 0.1-3.81 0.94-5.27 2.51s-2.14 3.39-2.03 5.44c0.09 1.98 0.88 3.67 2.34 5.09 1.44 1.39 3.11 2.11 5 2.16 2.13 0.06 3.97-0.68 5.51-2.22 1.52-1.51 2.27-3.3 2.27-5.38 0-2.1-0.78-3.92-2.33-5.46-1.55-1.53-3.38-2.24-5.49-2.14z"/>
		<path d="m533.38 175.2c0 2.33-0.88 4.35-2.63 6.06s-3.83 2.55-6.22 2.53c-2.19-0.02-4.12-0.85-5.8-2.5-1.72-1.68-2.6-3.66-2.63-5.93-0.03-2.29 0.77-4.31 2.4-6.05s3.58-2.67 5.87-2.78c2.44-0.11 4.56 0.69 6.34 2.42 1.78 1.72 2.67 3.8 2.67 6.25zm-8.9-7.67c-2.06 0.1-3.81 0.94-5.27 2.51s-2.14 3.39-2.03 5.44c0.09 1.98 0.88 3.67 2.34 5.09 1.44 1.39 3.11 2.11 5 2.16 2.13 0.06 3.97-0.68 5.51-2.22 1.52-1.51 2.27-3.3 2.27-5.38 0-2.1-0.78-3.92-2.33-5.46-1.54-1.53-3.37-2.24-5.49-2.14z"/>
		<path d="m541.21 183.56h-5.26v-16.75h1.09v15.74h4.16v1.01z"/>
	<path d="m18.43 1.84v84.06c0 23.24 6.99 44.77 34.38 44.77s34.38-21.53 34.38-44.77v-84.06h17.76v90.11c0 31.36-19.46 55.35-52.14 55.35s-52.14-23.99-52.14-55.35v-90.11h17.76z"/>
		<path d="M442.17,146.91h-18.03V2.26h18.03V146.91z"/>
		<path d="M508.16,146.91h-18.03V18.76h-34.34V2.26h86.72v16.5h-34.34V146.91z"/>
</svg>
