<?xml version="1.0" encoding="UTF-8"?>
<svg enable-background="new 0 0 543.33 188.27" version="1.1" viewBox="0 0 543.33 188.27" xml:space="preserve" xmlns="http://www.w3.org/2000/svg">
<style type="text/css">
	.st0{fill:#208749;}
	.st1{fill:none;stroke:#000000;stroke-width:2.146;stroke-linecap:round;stroke-miterlimit:10;}
</style>
		<path class="st0" d="m115.51 2.31h53.64c48.64 0 85.93 21.34 85.93 74.59 0 43.06-30.37 70.36-72.86 70.36h-66.71v-144.95zm52.67 101.5h3.27c17.49 0 30.95-8.07 30.95-27.11 0-20.38-11.73-29.03-30.95-29.03h-3.27v56.14z"/>
		<path class="st0" d="m414.15 75.17c0 46.52-35.95 74.4-80.16 74.4-44.22 0-80.17-27.87-80.17-74.4 0-45.57 36.13-75.17 80.16-75.17s80.17 29.6 80.17 75.17zm-107.28 0.77c0 16.53 11.15 27.87 27.11 27.87s27.1-11.34 27.1-27.87c0-15.38-10.38-28.26-27.1-28.26s-27.11 12.88-27.11 28.26z"/>
	<line class="st1" x1="1.07" x2="542.26" y1="160.05" y2="160.05"/>
		<path d="m17.04 178.18c0 1.73-0.62 3.07-1.86 4.01-1.06 0.81-2.4 1.22-4.01 1.23-1.77 0.03-3.19-0.39-4.25-1.23-1.2-0.96-1.8-2.39-1.8-4.29v-9.96h3.14v9.76c0 1.95 0.96 2.93 2.88 2.93s2.88-0.99 2.88-2.97v-9.72h3.03v10.24z"/>
		<path d="m32.17 183.09h-2.96l-7.22-10.18v10.18h-3.17v-15.16h3.07l7.2 9.87v-9.87h3.08v15.16z"/>
		<path d="m37.87 183.09h-3.14v-15.16h3.14v15.16z"/>
		<path d="m54.12 167.94l-5.73 15.16h-2.4l-5.81-15.16h3.23l3.79 10.16 3.73-10.16h3.19z"/>
		<path d="M64.46,183.09H56v-15.16h8.46v2.83h-5.14v3.16h5.14v2.75h-5.23v3.59h5.23V183.09z"/>
		<path d="m76.81 183.09h-3.57l-4.15-6.11v6.11h-3.15v-15.16h5.22c1.44 0 2.6 0.42 3.47 1.25s1.31 1.91 1.31 3.22c0 1.07-0.37 2.02-1.11 2.85-0.71 0.8-1.56 1.26-2.55 1.39l4.53 6.45zm-4.16-10.46c-0.04-0.72-0.24-1.24-0.58-1.56s-0.89-0.48-1.65-0.48h-1.32v4.14h1.2c0.64 0 1.2-0.19 1.66-0.58 0.49-0.41 0.72-0.91 0.69-1.52z"/>
		<path d="m88.79 178.68c0.04 1.34-0.46 2.47-1.5 3.4s-2.27 1.39-3.68 1.39c-1.82 0-3.45-0.75-4.89-2.26l1.79-2.19c0.93 1.04 1.87 1.58 2.84 1.62 0.49 0.02 0.91-0.09 1.27-0.32 0.46-0.31 0.71-0.78 0.75-1.43 0.04-0.77-0.42-1.39-1.39-1.85l-2.26-1.08c-1.61-0.77-2.43-2.1-2.47-3.97-0.03-1.28 0.46-2.34 1.47-3.19 0.94-0.81 2.07-1.2 3.37-1.2 1.58 0.01 3.05 0.61 4.4 1.8l-1.88 1.98c-0.57-0.49-0.93-0.78-1.07-0.86-0.42-0.27-0.88-0.39-1.39-0.39-0.51 0.01-0.92 0.16-1.23 0.46-0.32 0.3-0.48 0.72-0.48 1.25 0.01 0.73 0.42 1.28 1.23 1.66l2.42 1.11c1.74 0.81 2.64 2.16 2.7 4.07z"/>
		<path d="m105.18 183.09h-3.27l-1.2-3.06h-6.11l-1.13 3.06h-3.27l5.82-15.16h3.05l6.11 15.16zm-5.53-5.68l-2.07-5.48-2.02 5.48h4.09z"/>
		<path d="m114.76 183.09h-7.74v-15.16h3.14v12.33h4.6v2.83z"/>
		<path d="m134.55 175.11c0.03 2.21-0.46 4.04-1.48 5.49-1.18 1.66-2.88 2.49-5.1 2.49h-5.82v-15.16h5.91c2.04 0 3.65 0.73 4.83 2.2 1.08 1.33 1.63 2.99 1.66 4.98zm-3.11 0.14c-0.01-1.19-0.33-2.21-0.98-3.07-0.7-0.94-1.61-1.41-2.71-1.41h-2.46v9.5h2.25c1.37 0 2.4-0.53 3.07-1.59 0.57-0.89 0.84-2.03 0.83-3.43z"/>
		<path d="m144.85 183.09h-8.46v-15.16h8.46v2.83h-5.14v3.16h5.14v2.75h-5.23v3.59h5.23v2.83z"/>
		<path d="m156.46 178.68c0.04 1.34-0.46 2.47-1.5 3.4s-2.27 1.39-3.68 1.39c-1.82 0-3.45-0.75-4.89-2.26l1.79-2.19c0.93 1.04 1.87 1.58 2.84 1.62 0.49 0.02 0.91-0.09 1.27-0.32 0.46-0.31 0.71-0.78 0.75-1.43 0.04-0.77-0.42-1.39-1.39-1.85l-2.26-1.08c-1.61-0.77-2.43-2.1-2.47-3.97-0.03-1.28 0.46-2.34 1.47-3.19 0.94-0.81 2.07-1.2 3.37-1.2 1.58 0.01 3.05 0.61 4.4 1.8l-1.88 1.98c-0.57-0.49-0.93-0.78-1.07-0.86-0.42-0.27-0.88-0.39-1.39-0.39-0.51 0.01-0.92 0.16-1.23 0.46-0.32 0.3-0.48 0.72-0.48 1.25 0.01 0.73 0.42 1.28 1.23 1.66l2.42 1.11c1.74 0.81 2.64 2.16 2.7 4.07z"/>
		<path d="M162.14,183.09H159v-15.16h3.14V183.09z"/>
		<path d="m180.08 174.8c0.12 2.69-0.54 4.79-1.97 6.31-1.32 1.41-3.13 2.14-5.42 2.21-2.14 0.06-4-0.69-5.57-2.26-1.57-1.56-2.34-3.43-2.33-5.59 0.01-2.12 0.78-3.94 2.31-5.45s3.37-2.26 5.51-2.26c1.37 0 2.69 0.35 3.96 1.04 1.22 0.66 2.05 1.44 2.51 2.34l-1.98 2.02c-0.48-0.81-1.08-1.44-1.8-1.92-0.82-0.54-1.71-0.79-2.65-0.76-1.47 0.06-2.64 0.56-3.48 1.49-0.78 0.87-1.19 1.99-1.23 3.37-0.04 1.41 0.39 2.63 1.3 3.64 0.93 1.05 2.11 1.58 3.54 1.59 1.02 0.01 1.88-0.24 2.6-0.75 0.76-0.55 1.22-1.33 1.38-2.34h-4.09v-2.7h7.41z"/>
		<path d="m195.32 183.09h-2.96l-7.22-10.18v10.18h-3.17v-15.16h3.07l7.2 9.87v-9.87h3.08v15.16z"/>
		<path d="m218.24 175.42c0.03 2.13-0.67 3.98-2.12 5.54s-3.24 2.37-5.39 2.44c-2.19 0.08-4.08-0.68-5.69-2.26s-2.4-3.47-2.38-5.67c0.02-2.14 0.8-3.98 2.34-5.51s3.39-2.29 5.53-2.27c2.11 0.02 3.91 0.78 5.41 2.29 1.49 1.51 2.26 3.32 2.3 5.44zm-3.15 0.14c0.03-1.44-0.4-2.62-1.29-3.54s-2-1.39-3.33-1.41c-1.34-0.03-2.49 0.46-3.43 1.47s-1.4 2.2-1.37 3.6c0.03 1.41 0.5 2.58 1.43 3.51s2.06 1.4 3.41 1.39c1.49-0.02 2.64-0.53 3.47-1.53 0.71-0.9 1.08-2.06 1.11-3.49z"/>
		<path d="m233.47 183.09h-2.96l-7.22-10.18v10.18h-3.17v-15.16h3.07l7.2 9.87v-9.87h3.08v15.16z"/>
		<path d="m243.46 183.09h-7.74v-15.16h3.14v12.33h4.6v2.83z"/>
		<path d="m248.75 183.09h-3.14v-15.16h3.14v15.16z"/>
		<path d="m264.69 183.09h-2.96l-7.22-10.18v10.18h-3.17v-15.16h3.07l7.2 9.87v-9.87h3.08v15.16z"/>
		<path d="m275.4 183.09h-8.46v-15.16h8.46v2.83h-5.14v3.16h5.14v2.75h-5.23v3.59h5.23v2.83z"/>
		<path d="m290.12 182.58c-0.91 0.44-1.74 0.67-2.51 0.67-1.44 0-2.68-0.5-3.71-1.51s-1.54-2.22-1.52-3.63c0.03-1.41 0.54-2.62 1.55-3.63s2.21-1.51 3.61-1.51c0.72 0 1.53 0.2 2.44 0.59v2.49c-0.28-0.11-0.57-0.22-0.85-0.32-0.45-0.15-0.83-0.23-1.17-0.22-0.76 0.01-1.37 0.26-1.82 0.75s-0.67 1.09-0.66 1.8 0.23 1.3 0.67 1.77c0.47 0.5 1.08 0.74 1.84 0.74 0.69 0 1.4-0.25 2.13-0.75v2.76z"/>
		<path d="m303.1 178.23c-0.01 1.52-0.55 2.78-1.64 3.8s-2.4 1.52-3.94 1.52c-1.5 0-2.79-0.54-3.88-1.61-1.08-1.07-1.62-2.35-1.61-3.83 0.01-1.49 0.57-2.75 1.7-3.78 1.1-1.02 2.42-1.53 3.97-1.53 1.47 0 2.74 0.53 3.81 1.6 1.07 1.08 1.6 2.35 1.59 3.83zm-3.01-0.04c-0.04-0.74-0.31-1.36-0.81-1.85s-1.09-0.72-1.79-0.7c-0.68 0.03-1.25 0.29-1.72 0.79s-0.7 1.1-0.68 1.78 0.27 1.27 0.75 1.76 1.06 0.73 1.74 0.73c0.69 0 1.29-0.25 1.8-0.75s0.75-1.09 0.71-1.76z"/>
		<path d="m314.35 183.09h-2.94v-6.03c0-1-0.52-1.52-1.57-1.54-0.49-0.01-0.93 0.16-1.32 0.51s-0.59 0.76-0.59 1.23v5.82h-3.01v-9.9h2.97v1.08c0.9-0.93 1.92-1.38 3.05-1.38 0.99 0.01 1.81 0.35 2.46 1.01 0.64 0.67 0.96 1.48 0.96 2.43v6.77z"/>
		<path d="m321.86 175.66h-1.67v7.43h-2.98v-7.43h-1.04v-2.47h1.04v-3.06h3.05v3.06h1.61v2.47z"/>
		<path d="m333.87 178.8h-7.11c0.09 0.59 0.33 1.07 0.74 1.45 0.41 0.37 0.92 0.56 1.53 0.55 0.91-0.01 1.66-0.54 2.25-1.59l2.17 1.41c-1.21 1.83-2.71 2.73-4.51 2.69-1.52-0.04-2.77-0.6-3.75-1.68-0.96-1.06-1.43-2.34-1.4-3.83 0.03-1.4 0.46-2.55 1.3-3.47 0.9-0.99 2.1-1.49 3.6-1.49 1.62 0 2.89 0.51 3.82 1.53 0.97 1.05 1.43 2.53 1.36 4.43zm-3.14-1.92c-0.08-1.23-0.74-1.86-1.98-1.88-0.57-0.01-1.05 0.19-1.43 0.6-0.34 0.37-0.53 0.79-0.55 1.27h3.96z"/>
		<path d="m345.11 183.09h-2.94v-6.03c0-1-0.52-1.52-1.57-1.54-0.49-0.01-0.93 0.16-1.32 0.51s-0.59 0.76-0.59 1.23v5.82h-3.01v-9.9h2.97v1.08c0.9-0.93 1.92-1.38 3.05-1.38 0.99 0.01 1.81 0.35 2.46 1.01 0.64 0.67 0.96 1.48 0.96 2.43v6.77z"/>
		<path d="m352.62 175.66h-1.67v7.43h-2.98v-7.43h-1.04v-2.47h1.04v-3.06h3.05v3.06h1.61v2.47z"/>
		<path d="m363.83 183.09h-3.14v-15.16h3.14v15.16z"/>
		<path d="m379.77 183.09h-2.96l-7.22-10.18v10.18h-3.18v-15.16h3.07l7.2 9.87v-9.87h3.08v15.16z"/>
		<path d="m391.75 178.68c0.04 1.34-0.46 2.47-1.5 3.4s-2.27 1.39-3.68 1.39c-1.82 0-3.44-0.75-4.88-2.26l1.79-2.19c0.93 1.04 1.87 1.58 2.84 1.62 0.49 0.02 0.91-0.09 1.27-0.32 0.46-0.31 0.71-0.78 0.75-1.43 0.04-0.77-0.42-1.39-1.39-1.85l-2.26-1.08c-1.61-0.77-2.43-2.1-2.47-3.97-0.03-1.28 0.46-2.34 1.47-3.19 0.94-0.81 2.06-1.2 3.37-1.2 1.59 0.01 3.05 0.61 4.4 1.8l-1.88 1.98c-0.57-0.49-0.93-0.78-1.07-0.86-0.42-0.27-0.88-0.39-1.39-0.39-0.51 0.01-0.92 0.16-1.23 0.46-0.32 0.3-0.48 0.72-0.48 1.25 0.01 0.73 0.42 1.28 1.23 1.66l2.42 1.11c1.73 0.81 2.63 2.16 2.69 4.07z"/>
		<path d="m404.12 172.42c0.04 1.34-0.35 2.46-1.18 3.38-0.87 0.97-2.01 1.45-3.44 1.45h-2.31v5.84h-3.15v-15.16h5.22c1.44 0 2.6 0.42 3.48 1.26s1.34 1.92 1.38 3.23zm-3.12 0.16c-0.03-1.41-0.75-2.11-2.17-2.11h-1.65v4.19h1.8c0.57 0 1.06-0.2 1.45-0.58s0.58-0.89 0.57-1.5z"/>
		<path d="m414.42 183.09h-8.46v-15.16h8.46v2.83h-5.14v3.16h5.14v2.75h-5.23v3.59h5.23v2.83z"/>
		<path d="m427.28 182.38c-1.04 0.55-2.25 0.85-3.62 0.9-2.03 0.07-3.82-0.67-5.37-2.22s-2.32-3.38-2.32-5.51c0-2.14 0.74-3.96 2.22-5.45s3.33-2.27 5.56-2.33c0.86-0.03 2.04 0.28 3.54 0.92v3c-0.36-0.25-0.83-0.48-1.4-0.71-0.81-0.31-1.52-0.45-2.13-0.42-1.39 0.06-2.53 0.6-3.42 1.61-0.86 0.97-1.29 2.15-1.3 3.54-0.01 1.35 0.43 2.49 1.32 3.39 0.93 0.94 2.11 1.41 3.55 1.41 1.1 0 2.22-0.34 3.38-1.02v2.89z"/>
		<path d="m438.27 170.76h-2.88v12.33h-3.21v-12.33h-3.03v-2.83h9.13v2.83z"/>
		<path d="m443.91 183.09h-3.14v-15.16h3.14v15.16z"/>
		<path d="m462.07 175.42c0.03 2.13-0.67 3.98-2.12 5.54s-3.24 2.37-5.39 2.44c-2.19 0.08-4.08-0.68-5.69-2.26s-2.4-3.47-2.38-5.67c0.02-2.14 0.8-3.98 2.34-5.51s3.38-2.29 5.53-2.27c2.11 0.02 3.91 0.78 5.41 2.29s2.27 3.32 2.3 5.44zm-3.15 0.14c0.03-1.44-0.4-2.62-1.29-3.54s-2-1.39-3.33-1.41c-1.34-0.03-2.49 0.46-3.43 1.47s-1.4 2.2-1.37 3.6c0.03 1.41 0.5 2.58 1.43 3.51s2.06 1.4 3.41 1.39c1.49-0.02 2.64-0.53 3.47-1.53 0.72-0.9 1.09-2.06 1.11-3.49z"/>
		<path d="m477.31 183.09h-2.96l-7.22-10.18v10.18h-3.18v-15.16h3.07l7.2 9.87v-9.87h3.08v15.16z"/>
		<path d="m493.76 170.76h-2.88v12.33h-3.21v-12.33h-3.03v-2.83h9.13v2.83z"/>
		<path d="m510.56 175.42c0.03 2.13-0.67 3.98-2.12 5.54s-3.24 2.37-5.39 2.44c-2.19 0.08-4.08-0.68-5.69-2.26s-2.4-3.47-2.38-5.67c0.02-2.14 0.8-3.98 2.34-5.51s3.38-2.29 5.53-2.27c2.11 0.02 3.91 0.78 5.41 2.29s2.27 3.32 2.3 5.44zm-3.15 0.14c0.03-1.44-0.4-2.62-1.29-3.54s-2-1.39-3.33-1.41c-1.34-0.03-2.49 0.46-3.43 1.47s-1.4 2.2-1.37 3.6c0.03 1.41 0.5 2.58 1.43 3.51s2.06 1.4 3.41 1.39c1.49-0.02 2.64-0.53 3.47-1.53 0.71-0.9 1.08-2.06 1.11-3.49z"/>
		<path d="m528.02 175.42c0.03 2.13-0.67 3.98-2.12 5.54s-3.24 2.37-5.39 2.44c-2.19 0.08-4.08-0.68-5.69-2.26s-2.4-3.47-2.38-5.67c0.02-2.14 0.8-3.98 2.34-5.51s3.38-2.29 5.53-2.27c2.11 0.02 3.91 0.78 5.41 2.29s2.26 3.32 2.3 5.44zm-3.15 0.14c0.03-1.44-0.4-2.62-1.29-3.54s-2-1.39-3.33-1.41c-1.34-0.03-2.49 0.46-3.43 1.47s-1.4 2.2-1.37 3.6c0.03 1.41 0.5 2.58 1.43 3.51s2.06 1.4 3.41 1.39c1.49-0.02 2.64-0.53 3.47-1.53 0.71-0.9 1.08-2.06 1.11-3.49z"/>
		<path d="m538.03 183.09h-7.74v-15.16h3.14v12.33h4.6v2.83z"/>
	<path d="m18.43 1.84v84.06c0 23.24 6.99 44.77 34.38 44.77s34.38-21.53 34.38-44.77v-84.06h17.76v90.11c0 31.36-19.46 55.35-52.14 55.35s-52.14-23.99-52.14-55.35v-90.11h17.76z"/>
		<path d="M442.17,146.91h-18.03V2.26h18.03V146.91z"/>
		<path d="M508.16,146.91h-18.03V18.76h-34.34V2.26h86.72v16.5h-34.34V146.91z"/>
</svg>
