<svg data-name="Layer 1" xmlns="http://www.w3.org/2000/svg" viewBox="0 0 348.109 114.14"><path d="M133.612 91.39H0V21.95h151.372z" fill="#ffc620"/><path d="M170.462 21.95h177.647v69.44H152.702z" fill="#fff"/><path d="M20.92 59.48V40.07h7.47v19.22c0 5.53 2.77 8.39 7.33 8.39s7.33-2.77 7.33-8.15V40.07h7.47v19.17c0 10.29-5.77 15.34-14.9 15.34-9.12 0-14.7-5.1-14.7-15.1zm37.17-2.33v-.1A17.265 17.265 0 0 1 75.8 39.48c6.41 0 10.24 2.14 13.39 5.24l-4.76 5.48c-2.62-2.38-5.29-3.83-8.69-3.83-5.73 0-9.85 4.76-9.85 10.58v.1c0 5.82 4.03 10.68 9.85 10.68 3.88 0 6.26-1.55 8.93-3.98l4.76 4.8a17.372 17.372 0 0 1-13.93 6.07 17.132 17.132 0 0 1-17.41-17.47zm38.77-17.08h25.87v6.8h-18.39v7.23h16.21v6.79h-16.21v13.15h-7.47V40.07zm239.46 34.36H313.5a1.515 1.515 0 0 1-1.51-1.51V71.1a1.515 1.515 0 0 1 1.51-1.51h22.82a1.515 1.515 0 0 1 1.51 1.51v1.83a1.513 1.513 0 0 1-1.51 1.5zM189.28 43.32a15.369 15.369 0 0 1 5.66.97 12.725 12.725 0 0 1 4.24 2.68 12.45 12.45 0 0 1 2.8 4.16 17.27 17.27 0 0 1 1.33 6.6v3.06a18.89 18.89 0 0 1-1.36 6.57 12.15 12.15 0 0 1-7.01 6.81 16.998 16.998 0 0 1-11.32 0 12.73 12.73 0 0 1-4.24-2.68 12.42 12.42 0 0 1-2.8-4.13 17.06 17.06 0 0 1-1.27-5.36 37.55 37.55 0 0 1 0-5.54 17.273 17.273 0 0 1 1.27-5.33 12.45 12.45 0 0 1 2.8-4.16 12.73 12.73 0 0 1 4.24-2.68 15.578 15.578 0 0 1 5.66-.97zm8.6 18.39a21.05 21.05 0 0 0 .12-2.45 22.81 22.81 0 0 0-.12-2.51 12.44 12.44 0 0 0-.77-3.3 7.55 7.55 0 0 0-4.24-4.42 10.294 10.294 0 0 0-7.2 0 7.46 7.46 0 0 0-2.59 1.77 7.92 7.92 0 0 0-1.65 2.65 12.84 12.84 0 0 0-.77 3.3 22.682 22.682 0 0 0-.12 2.51 21.17 21.17 0 0 0 .12 2.45 12.438 12.438 0 0 0 .77 3.3 7.55 7.55 0 0 0 4.24 4.42 10.294 10.294 0 0 0 7.2 0 7.46 7.46 0 0 0 2.59-1.77 7.92 7.92 0 0 0 1.65-2.65 12.063 12.063 0 0 0 .77-3.3zm27.35 13.44a11.55 11.55 0 0 1-5.84-1.27 11.09 11.09 0 0 1-3.3-2.74v13.03a1.559 1.559 0 0 1-.47 1.12 1.542 1.542 0 0 1-1.12.47h-2.18a1.542 1.542 0 0 1-1.12-.47 1.52 1.52 0 0 1-.47-1.12V45.5a1.605 1.605 0 0 1 1.59-1.59h2.18a1.605 1.605 0 0 1 1.59 1.59v1.83a10.45 10.45 0 0 1 3.36-2.8 11.85 11.85 0 0 1 5.78-1.21 13.502 13.502 0 0 1 5.16.97 12.075 12.075 0 0 1 4.16 2.8 13.8 13.8 0 0 1 2.83 4.42 17.87 17.87 0 0 1 1.24 5.83 28.498 28.498 0 0 1 0 3.84 17.93 17.93 0 0 1-1.24 5.84 13.45 13.45 0 0 1-2.83 4.39 12.19 12.19 0 0 1-4.16 2.77 13.5 13.5 0 0 1-5.16.97zM216.1 56.7c-.04.59-.06 1.37-.06 2.33s.02 1.74.06 2.33a9.136 9.136 0 0 0 2.51 6.45 8.3 8.3 0 0 0 6.04 2.27 7.855 7.855 0 0 0 6.13-2.48 10.592 10.592 0 0 0 2.48-6.72q.06-1.65 0-3.3a10.536 10.536 0 0 0-2.48-6.72 7.855 7.855 0 0 0-6.13-2.48 8.376 8.376 0 0 0-6.01 2.24 8.532 8.532 0 0 0-2.54 6.08zm28.46-.41a15.523 15.523 0 0 1 1.3-5.07 14.46 14.46 0 0 1 2.77-4.13 12.22 12.22 0 0 1 4.1-2.77 13.61 13.61 0 0 1 5.33-1 14.8 14.8 0 0 1 5.69 1.03 11.723 11.723 0 0 1 4.27 2.98 13.28 13.28 0 0 1 2.71 4.72 19.108 19.108 0 0 1 .94 6.19v1.59a1.542 1.542 0 0 1-.47 1.12 1.5 1.5 0 0 1-1.12.47h-20.27v.35a8.3 8.3 0 0 0 2.45 6.16 8.2 8.2 0 0 0 5.81 2.15 10.152 10.152 0 0 0 4.86-.91 10.38 10.38 0 0 0 2.62-2.03 3.45 3.45 0 0 1 .83-.65 2.437 2.437 0 0 1 1.06-.18h1.77a1.752 1.752 0 0 1 1.18.47 1.148 1.148 0 0 1 .41 1.12 6.32 6.32 0 0 1-1 2.33 8.8 8.8 0 0 1-2.39 2.36 14.21 14.21 0 0 1-3.89 1.83 18.142 18.142 0 0 1-5.45.74 13.018 13.018 0 0 1-5.3-1.03 12.8 12.8 0 0 1-4.1-2.83 14.16 14.16 0 0 1-2.8-4.24 16.74 16.74 0 0 1-1.3-5.33 25.37 25.37 0 0 1-.01-5.44zm5.25.18h16.56v-.18a7.568 7.568 0 0 0-2.27-5.75 8.437 8.437 0 0 0-6.04-2.15 8.932 8.932 0 0 0-3.18.56 7.8 7.8 0 0 0-2.59 1.59 7.32 7.32 0 0 0-1.77 2.51 8.73 8.73 0 0 0-.71 3.24zm56.23 16.5a1.605 1.605 0 0 1-1.59 1.59h-2.18a1.605 1.605 0 0 1-1.59-1.59V57.41c0-3.03-.73-5.28-2.18-6.78a9.223 9.223 0 0 0-12.05 0q-2.265 2.235-2.27 6.78v15.56a1.542 1.542 0 0 1-.47 1.12 1.559 1.559 0 0 1-1.12.47h-2.18a1.542 1.542 0 0 1-1.12-.47 1.5 1.5 0 0 1-.47-1.12V45.5a1.605 1.605 0 0 1 1.59-1.59h2.18a1.559 1.559 0 0 1 1.12.47 1.542 1.542 0 0 1 .47 1.12v1.83a11 11 0 0 1 3.33-2.74 11.65 11.65 0 0 1 5.8-1.27 14.257 14.257 0 0 1 5.13.91 11.543 11.543 0 0 1 4.04 2.59 11.68 11.68 0 0 1 2.62 4.16 15.442 15.442 0 0 1 .94 5.54z"/><path fill="#fff" d="M163.14 0L134.6 114.14h6.66L169.8 0h-6.66z"/></svg>
